<svg xmlns="http://www.w3.org/2000/svg" width="60" height="60">
  <g fill="none" stroke="#a5d6a7" stroke-width="1" opacity="0.6">
    <!-- spiral 1 -->
    <path d="M15 15 Q18 10 20 15 Q22 22 15 23 Q8 22 9 15 Q10 8 18 8"/>
    <!-- spiral 2 -->
    <path d="M42 35 Q45 30 47 35 Q49 42 42 43 Q35 42 36 35 Q37 28 45 28"/>
    <!-- spiral 3 - smaller -->
    <path d="M30 8 Q32 5 33 8 Q34 12 30 12 Q26 12 27 8"/>
    <!-- spiral 4 - smaller -->
    <path d="M8 40 Q10 37 11 40 Q12 44 8 44 Q4 44 5 40"/>
    <!-- spiral 5 -->
    <path d="M48 10 Q51 5 53 10 Q55 17 48 18 Q41 17 42 10 Q43 3 51 3"/>
  </g>
</svg>